<?xml version="1.0" encoding="iso-8859-1"?>
<!-- Generator: Adobe Illustrator 16.0.0, SVG Export Plug-In . SVG Version: 6.00 Build 0)  -->
<!DOCTYPE svg PUBLIC "-//W3C//DTD SVG 1.1//EN" "http://www.w3.org/Graphics/SVG/1.1/DTD/svg11.dtd">
<svg version="1.1" id="Capa_1" xmlns="http://www.w3.org/2000/svg" xmlns:xlink="http://www.w3.org/1999/xlink" x="0px" y="0px"
	 width="285.532px" height="285.532px" viewBox="0 0 285.532 285.532" style="enable-background:new 0 0 285.532 285.532;"
	 xml:space="preserve">
<g>
	<g>
		<polygon points="41.544,185.183 23.861,185.183 23.861,47.32 71.583,47.32 71.583,185.183 52.149,185.183 52.149,257.65 
			86.609,257.65 86.609,27.881 47.722,27.881 0,27.881 0,257.65 41.544,257.65 		"/>
		<polygon points="137.466,257.65 137.466,185.183 119.304,185.183 119.304,47.32 167.025,47.32 167.025,185.183 148.071,185.183 
			148.071,257.65 183.601,257.65 183.601,27.881 143.165,27.881 97.214,27.881 97.214,257.65 		"/>
		<path d="M238.608,27.881h-0.798h-43.605V257.65h43.605h0.798h46.924V27.881H238.608z M261.672,185.183h-17.679v69.812h-10.604
			v-69.812H213.95V47.32h47.722V185.183z"/>
	</g>
</g>
<g>
</g>
<g>
</g>
<g>
</g>
<g>
</g>
<g>
</g>
<g>
</g>
<g>
</g>
<g>
</g>
<g>
</g>
<g>
</g>
<g>
</g>
<g>
</g>
<g>
</g>
<g>
</g>
<g>
</g>
</svg>
